<?xml version="1.0" standalone="no"?>
<!DOCTYPE svg PUBLIC "-//W3C//DTD SVG 20010904//EN"
 "http://www.w3.org/TR/2001/REC-SVG-20010904/DTD/svg10.dtd">
<svg version="1.0" xmlns="http://www.w3.org/2000/svg"
 width="480.000000pt" height="480.000000pt" viewBox="0 0 480.000000 480.000000"
 preserveAspectRatio="xMidYMid meet">

<g transform="translate(0.000000,480.000000) scale(0.100000,-0.100000)"
fill="#000000" stroke="none">
<path d="M2290 4575 c-175 -33 -369 -122 -555 -254 -153 -109 -591 -476 -700
-586 -261 -264 -368 -673 -284 -1087 20 -100 67 -244 101 -312 l20 -39 -34 6
c-157 28 -248 16 -307 -41 -25 -24 -43 -53 -52 -82 -17 -63 -15 -286 4 -395
54 -307 160 -501 315 -577 62 -31 73 -33 169 -33 l102 0 36 -109 c62 -188 150
-338 262 -448 104 -102 140 -118 473 -209 41 -11 147 -53 235 -94 196 -90 252
-105 386 -105 222 1 348 48 740 279 293 172 345 207 429 287 84 81 128 147
176 267 l33 82 61 7 c76 9 149 48 202 108 65 73 194 274 227 354 76 184 99
399 53 501 -47 102 -134 164 -229 165 l-52 0 45 84 c107 201 119 440 38 722
-46 158 -134 385 -209 539 -86 175 -165 284 -310 430 -278 279 -588 460 -905
530 -105 23 -372 29 -470 10z m290 -428 c157 -53 327 -181 371 -279 21 -47 24
-68 24 -178 0 -117 -17 -240 -34 -240 -12 0 -83 200 -158 445 -17 58 -19 60
-53 60 -28 0 -38 -6 -55 -32 -11 -17 -55 -88 -99 -157 -43 -69 -80 -126 -81
-126 -9 0 -66 106 -94 175 -59 142 -98 188 -142 165 -25 -14 -137 -241 -194
-395 -50 -136 -49 -134 -69 -84 -49 122 -44 284 13 404 97 208 353 317 571
242z m-239 -442 c46 -97 121 -193 157 -202 32 -8 43 5 136 161 38 63 73 113
76 111 4 -3 15 -33 25 -67 9 -35 37 -116 62 -181 25 -65 43 -121 40 -123 -2
-2 -36 2 -75 11 -157 33 -373 40 -586 19 -57 -6 -58 -6 -51 17 14 48 94 246
126 313 30 65 33 68 42 45 5 -13 27 -60 48 -104z m645 -809 c168 -28 288 -75
392 -153 29 -22 111 -91 183 -154 l131 -114 -7 -165 c-3 -91 -12 -218 -19
-284 -16 -146 -8 -197 40 -284 20 -37 49 -111 65 -165 27 -93 27 -103 18 -185
-35 -288 -139 -493 -313 -616 -57 -41 -360 -223 -540 -324 -182 -103 -338
-147 -499 -140 -117 6 -148 15 -337 103 -148 69 -178 79 -355 125 -164 42
-233 76 -309 152 -74 75 -113 130 -165 235 -72 146 -134 369 -147 535 l-6 73
60 126 c81 169 109 251 123 356 13 95 8 279 -12 432 -13 105 -15 101 75 166
226 160 548 251 1051 295 138 12 461 4 571 -14z m-2139 -702 c75 -21 89 -43
97 -161 22 -313 38 -449 56 -491 11 -25 20 -61 20 -81 1 -20 7 -69 14 -109
l12 -73 -24 -6 c-44 -11 -137 4 -189 30 -66 34 -108 84 -154 182 -74 159 -109
328 -109 527 0 146 11 184 58 194 15 3 32 7 37 9 18 7 128 -6 182 -21z m3389
-65 c52 -49 69 -96 67 -194 -2 -164 -57 -314 -180 -498 -81 -120 -142 -183
-190 -196 -20 -6 -39 -9 -41 -6 -2 2 24 183 58 402 54 346 66 405 91 455 15
31 34 59 41 62 7 3 39 4 70 3 45 -3 64 -9 84 -28z"/>
<path d="M2965 2727 c-78 -29 -161 -85 -219 -147 -46 -50 -57 -85 -34 -108 26
-26 59 -13 119 48 37 36 86 72 127 92 60 30 75 33 157 33 102 0 131 -11 202
-76 48 -44 65 -47 93 -19 25 25 25 30 -2 70 -30 44 -108 96 -171 115 -76 22
-199 19 -272 -8z"/>
<path d="M1780 2685 c-79 -18 -233 -93 -277 -135 -50 -47 -41 -100 18 -100 15
0 32 7 39 15 22 27 123 83 189 105 71 23 174 28 240 10 23 -6 63 -30 91 -55
57 -50 71 -54 100 -25 30 30 25 50 -31 102 -88 82 -230 114 -369 83z"/>
<path d="M1842 2389 c-40 -12 -141 -110 -165 -161 -80 -169 -17 -486 122 -611
40 -36 51 -52 51 -76 0 -40 -25 -46 -122 -32 -90 14 -194 63 -266 127 -42 37
-57 45 -78 40 -32 -8 -44 -41 -44 -125 0 -125 50 -253 169 -430 109 -161 192
-210 337 -198 39 4 84 11 99 17 24 9 30 8 43 -12 32 -47 97 -101 155 -129 77
-36 151 -45 237 -29 64 12 69 12 135 -15 59 -23 79 -26 149 -23 94 4 148 26
220 89 44 39 47 40 99 34 160 -20 308 71 336 207 10 49 15 55 56 77 93 49 171
160 200 283 17 73 20 309 5 339 -18 33 -61 24 -119 -26 -128 -109 -290 -191
-437 -220 -30 -6 -32 -4 -42 36 -10 39 -9 44 12 60 41 32 116 152 142 227 64
184 53 397 -25 486 -35 39 -90 58 -160 54 -154 -9 -268 -115 -347 -326 l-31
-84 -172 -1 -171 -2 0 46 c0 25 -7 70 -16 100 -63 211 -213 323 -372 278z
m138 -109 c36 -19 74 -59 98 -105 9 -19 7 -20 -48 -20 -54 0 -62 -3 -95 -35
-62 -60 -70 -160 -22 -280 l23 -57 -29 -52 c-29 -51 -30 -51 -49 -34 -56 50
-111 211 -112 328 -1 115 8 146 61 205 67 75 104 85 173 50z m1042 -14 c62
-46 72 -230 21 -386 -19 -60 -91 -175 -109 -175 -6 0 -27 20 -46 46 l-35 45
25 35 c101 143 74 284 -64 329 l-36 12 33 34 c63 65 167 94 211 60z m-487
-407 c89 -12 135 -35 212 -104 47 -42 72 -75 100 -133 37 -74 38 -79 37 -182
0 -87 -4 -112 -22 -146 -48 -94 -149 -145 -322 -166 -192 -23 -315 18 -444
148 -140 139 -172 257 -107 389 36 72 88 122 167 161 79 39 243 53 379 33z"/>
</g>
</svg>
